<?xml version="1.0" encoding="utf-8"?>
<!-- Generator: Adobe Illustrator 25.4.1, SVG Export Plug-In . SVG Version: 6.00 Build 0)  -->
<svg version="1.1" id="OBJECTS" xmlns="http://www.w3.org/2000/svg" xmlns:xlink="http://www.w3.org/1999/xlink" x="0px" y="0px"
	 viewBox="0 0 312.17 280.1" style="enable-background:new 0 0 312.17 280.1;" xml:space="preserve">
<style type="text/css">
	.st0{fill:none;}
	.st1{fill:#FF9900;}
	.st2{fill:#222F5B;}
	.st3{fill:#FFFFFF;}
</style>
<g>
	<path class="st1" d="M160.89,254.26c-0.67-2.16-1.69-4.15-3-5.92c-3.66-4.95-9.53-8.1-16-8.1c-0.63,0-1.27,0.03-1.91,0.09
		c-1.65,0.16-3.23,0.53-4.72,1.06c-2.14,0.75-4.11,1.84-5.83,3.22c-1.45,1.16-2.72,2.51-3.79,4.02c-2.68,3.77-4.09,8.47-3.61,13.43
		c0.98,10.32,9.66,18.04,19.82,18.04c0.63,0,1.27-0.03,1.91-0.09c10.48-1,18.26-9.94,18.01-20.3c-0.01-0.48-0.02-0.95-0.06-1.43
		C161.58,256.89,161.29,255.54,160.89,254.26z"/>
	<path class="st1" d="M266.75,234.04c-1.47-1.2-3.11-2.19-4.87-2.94c-2.19-0.92-4.56-1.45-7.03-1.54c-0.22-0.01-0.44-0.03-0.67-0.03
		c-0.63,0-1.27,0.03-1.91,0.09c-6.67,0.64-12.25,4.5-15.36,9.9c-1.2,2.08-2.03,4.38-2.41,6.82c-0.26,1.62-0.34,3.3-0.18,5.01
		c0.02,0.22,0.06,0.42,0.09,0.64c1.27,9.99,9.78,17.41,19.73,17.41c0.63,0,1.27-0.03,1.91-0.09c10.96-1.04,18.99-10.77,17.95-21.73
		C273.48,242.06,270.73,237.29,266.75,234.04z"/>
	<path class="st3" d="M311.59,110.59l-1.8-18.86c-0.78-8.14-7.63-14.24-15.64-14.24c-0.5,0-1,0.02-1.51,0.07
		c-8.65,0.82-14.99,8.5-14.17,17.15l1.8,18.86c0.26,2.7,0.37,5.38,0.4,8.04c0.42,33.3-16.33,63.52-42.57,81.32
		c-13,8.82-28.31,14.59-45.02,16.19c-3.11,0.3-6.19,0.44-9.25,0.44c-12.2,0-23.96-2.31-34.83-6.54c-8.5-3.3-16.44-7.81-23.62-13.28
		c-1.32-1.18-2.84-2.41-4.61-3.71c-26.51-19.47-31.46-52.71-31.46-52.71c-0.81-3.71-1.4-7.51-1.77-11.39l-3.47-36.39
		c-1.68-17.65-16.58-30.9-33.96-30.9c-1.08,0-2.17,0.05-3.26,0.16l-32.6,3.11C5.59,68.72-0.75,76.4,0.07,85.05
		c0.78,8.14,7.63,14.24,15.64,14.24c0.5,0,1-0.02,1.51-0.07l32.6-3.11c0.09-0.01,0.17-0.01,0.26-0.01c1.36,0,2.53,1.04,2.66,2.42
		l3.47,36.39c0.57,5.99,1.58,11.84,2.93,17.54c0.14,0.69,0.29,1.4,0.5,2.14c5.15,17.99,12.07,30.3,12.07,30.3
		c5.53,9.94,12.34,19.02,20.18,27.08l0.12,0.15l0.45,0.43c1.89,1.92,3.83,3.78,5.83,5.57l0.29,0.28l0.03,0
		c7.6,6.77,15.99,12.65,24.99,17.47c4.44-3.35,9.71-5.45,15.39-5.99c0.96-0.09,1.94-0.14,2.91-0.14h0
		c13.32,0,24.64,8.48,28.74,20.58c4.34,0.45,8.73,0.7,13.17,0.7c4.05,0,8.15-0.19,12.26-0.58c9.77-0.93,19.16-2.98,28.11-5.93
		c0.86-5.25,3.06-10.2,6.54-14.41c5.17-6.26,12.48-10.14,20.57-10.91c0.96-0.09,1.94-0.14,2.91-0.14h0c4.13,0,8.06,0.83,11.65,2.31
		C297.31,195.14,315.76,154.35,311.59,110.59z"/>
	<path class="st0" d="M166.01,152.16c-3.59,0.47-4.98,2.02-4.44,5.64c1.34,8.91,2.53,17.84,3.9,27.67
		c16.77-2.35,32.62-4.18,48.31-6.9c9.53-1.65,14.49-9.8,12.89-19.05c-1.51-8.75-8.59-14.21-18.04-13.15
		c-8.07,1.99-16.55,3.15-25.31,3.39C177.54,150.58,171.78,151.4,166.01,152.16z"/>
	<path class="st0" d="M183.3,149.76c8.77-0.23,17.25-1.4,25.31-3.39c-0.05,0.01-0.09,0.01-0.14,0.01
		C200.07,147.38,191.69,148.57,183.3,149.76z"/>
	<path class="st0" d="M200.5,101.15c9.64-1.85,12.92-8.45,11.08-18.17c-1.55-8.2-7.57-13.03-16.57-12.04
		c-13.45,1.47-26.83,3.52-40.19,5.68c-1.51,0.25-3.88,2.97-3.75,4.34c0.82,8.71,2.23,17.37,3.54,26.81
		C170.58,105.54,185.67,104.01,200.5,101.15z"/>
	<path class="st1" d="M267.88,123.62c-2.05-2.62-4.8-4.7-7.72-6.87c-1.53-1.14-3.11-2.3-4.66-3.58c7.74-9.82,10.91-20,10.74-30.28
		c-0.16-10.03-3.49-20.15-8.87-30.15c-11.4-21.2-31.42-27.63-54.85-27.99c-0.78-5.55-1.43-10.94-2.3-16.28
		c-1.01-6.21-4.72-9.13-11.04-8.34c-6.14,0.77-12.29,1.54-18.39,2.59c-6.91,1.18-9.59,5.03-8.72,12.16
		c0.54,4.47,1.23,8.93,1.94,13.99c-3.58,0.5-6.74,0.94-10.85,1.52c-0.65-4.68-1.27-9.55-2.03-14.39c-1.17-7.41-4.23-9.82-11.7-8.98
		c-5.91,0.67-11.82,1.49-17.68,2.5c-6.75,1.17-9.17,4.64-8.37,11.59c0.49,4.26,1.11,8.5,1.63,12.75c0.05,0.44-0.17,0.91-0.49,2.51
		c-3.72,0.52-7.88,1.08-12.02,1.69c-9.4,1.38-11.72,4.42-10.38,14c2.06,14.77,4.13,29.54,6.19,44.31
		c1.02,7.32,2.05,14.64,3.07,21.96c1.77,12.69,3.55,25.39,5.32,38.08c14.82,27.68,44.01,46.52,77.6,46.52
		c44.03,0,80.5-32.34,86.96-74.56C270.23,126.76,269.1,125.18,267.88,123.62z M154.61,107.78c-1.32-9.44-2.73-18.09-3.54-26.81
		c-0.13-1.38,2.23-4.09,3.75-4.34c13.35-2.17,26.74-4.22,40.19-5.68c9-0.98,15.02,3.84,16.57,12.04
		c1.84,9.72-1.44,16.31-11.08,18.17C185.67,104.01,170.58,105.54,154.61,107.78z M213.77,178.57c-15.69,2.71-31.54,4.55-48.31,6.9
		c-1.37-9.83-2.56-18.76-3.9-27.67c-0.54-3.63,0.85-5.17,4.44-5.64c5.77-0.75,11.53-1.58,17.3-2.39c8.38-1.19,16.77-2.38,25.17-3.38
		c0.05-0.01,0.09-0.01,0.14-0.01c9.46-1.05,16.53,4.41,18.04,13.15C228.26,168.77,223.31,176.93,213.77,178.57z"/>
</g>
</svg>
