<?xml version="1.0" encoding="utf-8"?>
<!-- Generator: Adobe Illustrator 25.4.1, SVG Export Plug-In . SVG Version: 6.00 Build 0)  -->
<svg version="1.1" id="OBJECTS" xmlns="http://www.w3.org/2000/svg" xmlns:xlink="http://www.w3.org/1999/xlink" x="0px" y="0px"
	 viewBox="0 0 819.27 280.1" style="enable-background:new 0 0 819.27 280.1;" xml:space="preserve">
<style type="text/css">
	.st0{fill:none;}
	.st1{fill:#222F5B;}
	.st2{fill:#FF9900;}
	.st3{fill:#FFFFFF;}
</style>
<g>
	<g>
		<g>
			<path class="st3" d="M373.25,178.65c-2.48,0-4.78,0.42-6.9,1.26c-2.12,0.84-3.94,2.08-5.47,3.72c-1.53,1.64-2.74,3.69-3.61,6.13
				c-0.88,2.45-1.31,5.24-1.31,8.37c0,6.28,1.57,11.07,4.71,14.39c3.14,3.32,7.33,4.98,12.59,4.98c3.06,0,5.62-0.42,7.66-1.26
				c2.04-0.84,3.87-1.81,5.47-2.9c0.8,0.44,1.46,0.99,1.97,1.64c0.51,0.66,0.77,1.46,0.77,2.41c0,1.02-0.4,1.97-1.2,2.85
				c-0.8,0.88-1.92,1.64-3.34,2.3s-3.1,1.19-5.04,1.59c-1.93,0.4-4.03,0.6-6.29,0.6c-3.79,0-7.3-0.55-10.51-1.64
				c-3.21-1.09-5.98-2.74-8.32-4.93c-2.34-2.19-4.16-4.94-5.47-8.26c-1.31-3.32-1.97-7.24-1.97-11.77c0-4.45,0.69-8.34,2.08-11.66
				c1.39-3.32,3.25-6.11,5.58-8.37c2.33-2.26,5.09-3.96,8.26-5.09c3.17-1.13,6.55-1.7,10.12-1.7c2.26,0,4.36,0.2,6.29,0.6
				c1.93,0.4,3.59,0.97,4.98,1.7c1.39,0.73,2.46,1.55,3.23,2.46c0.77,0.91,1.15,1.84,1.15,2.79c0,0.88-0.26,1.64-0.77,2.3
				c-0.51,0.66-1.17,1.17-1.97,1.53c-1.61-1.09-3.36-2.04-5.25-2.85C378.79,179.06,376.31,178.65,373.25,178.65z"/>
			<path class="st3" d="M447.78,198.03c0,4.09-0.58,7.77-1.75,11.05c-1.17,3.28-2.83,6.09-4.98,8.43c-2.15,2.34-4.76,4.12-7.83,5.36
				c-3.06,1.24-6.5,1.86-10.29,1.86c-3.79,0-7.22-0.62-10.29-1.86c-3.06-1.24-5.69-3.03-7.88-5.36c-2.19-2.33-3.87-5.14-5.03-8.43
				c-1.17-3.28-1.75-6.97-1.75-11.05c0-4.09,0.6-7.77,1.81-11.05c1.2-3.28,2.9-6.09,5.09-8.43c2.19-2.33,4.82-4.12,7.88-5.36
				c3.06-1.24,6.46-1.86,10.18-1.86c3.72,0,7.11,0.62,10.18,1.86c3.06,1.24,5.67,3.03,7.83,5.36c2.15,2.34,3.83,5.14,5.03,8.43
				C447.18,190.26,447.78,193.94,447.78,198.03z M422.94,178.55c-4.96,0-8.87,1.72-11.71,5.14c-2.85,3.43-4.27,8.21-4.27,14.34
				c0,6.2,1.4,11,4.21,14.39c2.81,3.39,6.73,5.09,11.77,5.09c5.04,0,8.94-1.71,11.71-5.14c2.77-3.43,4.16-8.21,4.16-14.34
				c0-6.13-1.41-10.91-4.21-14.34C431.79,180.26,427.9,178.55,422.94,178.55z"/>
			<path class="st3" d="M492.93,181.39c-2.3-1.9-5.38-2.85-9.25-2.85c-2.92,0-5.51,0.37-7.77,1.09c-2.26,0.73-4.2,1.57-5.8,2.52
				v40.93c-0.37,0.15-0.91,0.31-1.64,0.49c-0.73,0.18-1.53,0.27-2.41,0.27c-3.14,0-4.71-1.31-4.71-3.94V182.6
				c0-1.53,0.31-2.79,0.93-3.78c0.62-0.98,1.7-1.95,3.23-2.9c1.9-1.17,4.41-2.22,7.55-3.17c3.14-0.95,6.68-1.42,10.62-1.42
				c6.64,0,11.88,1.5,15.71,4.49c3.83,2.99,5.75,7.7,5.75,14.12v33.16c-0.37,0.15-0.93,0.31-1.7,0.49
				c-0.77,0.18-1.55,0.27-2.35,0.27c-3.14,0-4.71-1.31-4.71-3.94v-29.55C496.38,186.28,495.23,183.29,492.93,181.39z"/>
		</g>
	</g>
	<g>
		<g>
			<path class="st3" d="M371.01,112.26v24.55c-0.96,0.26-2.45,0.53-4.46,0.79c-2.01,0.26-4.07,0.39-6.17,0.39
				c-4.64,0-7.86-0.79-9.65-2.36c-1.8-1.58-2.69-4.42-2.69-8.53V64.86c0-1.84,0.5-3.26,1.51-4.27c1.01-1.01,2.38-1.82,4.14-2.43
				c2.97-1.05,6.5-1.82,10.57-2.3c4.07-0.48,7.77-0.72,11.1-0.72c12.08,0,21.31,2.58,27.7,7.75c6.39,5.17,9.59,12.17,9.59,21.01
				c0,4.29-0.81,8.16-2.43,11.62c-1.62,3.46-3.9,6.43-6.83,8.93c-2.93,2.49-6.5,4.42-10.7,5.78c-4.2,1.36-8.89,2.04-14.05,2.04
				H371.01z M377.18,94.27c3.68,0,6.61-0.9,8.8-2.69c2.19-1.79,3.28-4.35,3.28-7.68c0-3.33-1.03-5.89-3.09-7.68
				c-2.06-1.79-5.06-2.69-8.99-2.69c-1.4,0-2.56,0.02-3.48,0.07c-0.92,0.05-1.86,0.15-2.82,0.33v20.35H377.18z"/>
			<path class="st3" d="M447.55,71.16c4.73,0,9.04,0.48,12.93,1.44c3.89,0.96,7.22,2.43,9.98,4.4c2.76,1.97,4.88,4.46,6.37,7.48
				c1.49,3.02,2.23,6.59,2.23,10.7v29.41c0,2.28-0.64,4.14-1.9,5.58c-1.27,1.44-2.78,2.69-4.53,3.74
				c-5.69,3.41-13.7,5.12-24.03,5.12c-4.64,0-8.82-0.44-12.54-1.31c-3.72-0.87-6.92-2.19-9.58-3.94c-2.67-1.75-4.73-3.98-6.17-6.7
				c-1.44-2.71-2.17-5.86-2.17-9.45c0-6.04,1.79-10.68,5.38-13.92c3.59-3.24,9.15-5.25,16.68-6.04l17.2-1.84v-0.92
				c0-2.54-1.12-4.35-3.35-5.45c-2.23-1.09-5.45-1.64-9.65-1.64c-3.24,0-6.46,0.35-9.65,1.05c-3.2,0.7-6.06,1.58-8.6,2.63
				c-1.14-0.79-2.1-1.99-2.89-3.61c-0.79-1.62-1.18-3.3-1.18-5.06c0-2.28,0.55-4.09,1.64-5.45c1.09-1.36,2.78-2.52,5.06-3.48
				c2.54-0.96,5.54-1.66,8.99-2.1C441.23,71.38,444.49,71.16,447.55,71.16z M448.6,122.77c1.49,0,3.13-0.15,4.92-0.46
				c1.79-0.31,3.13-0.72,4-1.25v-10.5l-9.45,0.79c-2.45,0.18-4.46,0.7-6.04,1.58c-1.58,0.88-2.36,2.19-2.36,3.94
				c0,1.75,0.68,3.17,2.04,4.27C443.07,122.22,445.37,122.77,448.6,122.77z"/>
			<path class="st3" d="M532.11,132.09c-1.75,0.7-3.7,1.25-5.84,1.64c-2.15,0.39-4.53,0.59-7.16,0.59c-3.94,0-7.68-0.55-11.23-1.64
				c-3.54-1.09-6.65-2.89-9.32-5.38c-2.67-2.49-4.79-5.71-6.37-9.65c-1.58-3.94-2.36-8.75-2.36-14.44c0-5.25,0.81-9.87,2.43-13.85
				c1.62-3.98,3.89-7.33,6.83-10.04c2.93-2.71,6.5-4.75,10.7-6.11c4.2-1.36,8.88-2.04,14.05-2.04c2.45,0,4.86,0.18,7.22,0.53
				c2.36,0.35,4.57,0.83,6.63,1.44c2.06,0.61,3.92,1.27,5.58,1.97c1.66,0.7,3.06,1.44,4.2,2.23c1.75,1.23,3.13,2.61,4.14,4.14
				c1.01,1.53,1.51,3.48,1.51,5.84v48.71c0,4.64-0.85,8.64-2.56,12.01c-1.71,3.37-4.07,6.17-7.09,8.4
				c-3.02,2.23-6.56,3.87-10.64,4.92c-4.07,1.05-8.43,1.58-13.06,1.58c-4.73,0-8.89-0.37-12.47-1.12c-3.59-0.74-6.43-1.82-8.53-3.22
				c-3.15-2.1-4.73-5.08-4.73-8.93c0-2.01,0.41-3.85,1.25-5.51c0.83-1.66,1.77-2.89,2.82-3.68c2.54,1.4,5.4,2.58,8.6,3.55
				c3.19,0.96,6.54,1.44,10.04,1.44c4.64,0,8.36-0.79,11.16-2.36c2.8-1.58,4.2-4.12,4.2-7.62V132.09z M523.31,117.65
				c1.75,0,3.3-0.2,4.66-0.59c1.36-0.39,2.6-0.94,3.74-1.64V90.2c-0.96-0.44-1.95-0.81-2.95-1.12c-1.01-0.31-2.34-0.46-4-0.46
				c-3.76,0-6.83,1.16-9.19,3.48c-2.36,2.32-3.54,6.06-3.54,11.23c0,5.51,1.07,9.28,3.22,11.29
				C517.38,116.64,520.07,117.65,523.31,117.65z"/>
			<path class="st3" d="M593.17,71.16c4.73,0,9.04,0.48,12.93,1.44c3.89,0.96,7.22,2.43,9.98,4.4c2.76,1.97,4.88,4.46,6.37,7.48
				c1.49,3.02,2.23,6.59,2.23,10.7v29.41c0,2.28-0.64,4.14-1.9,5.58c-1.27,1.44-2.78,2.69-4.53,3.74
				c-5.69,3.41-13.7,5.12-24.03,5.12c-4.64,0-8.82-0.44-12.54-1.31c-3.72-0.87-6.92-2.19-9.58-3.94c-2.67-1.75-4.73-3.98-6.17-6.7
				c-1.44-2.71-2.17-5.86-2.17-9.45c0-6.04,1.79-10.68,5.38-13.92c3.59-3.24,9.15-5.25,16.68-6.04l17.2-1.84v-0.92
				c0-2.54-1.12-4.35-3.35-5.45c-2.23-1.09-5.45-1.64-9.65-1.64c-3.24,0-6.46,0.35-9.65,1.05c-3.2,0.7-6.06,1.58-8.6,2.63
				c-1.14-0.79-2.1-1.99-2.89-3.61c-0.79-1.62-1.18-3.3-1.18-5.06c0-2.28,0.55-4.09,1.64-5.45c1.09-1.36,2.78-2.52,5.06-3.48
				c2.54-0.96,5.54-1.66,8.99-2.1C586.84,71.38,590.1,71.16,593.17,71.16z M594.22,122.77c1.49,0,3.13-0.15,4.92-0.46
				c1.79-0.31,3.13-0.72,4-1.25v-10.5l-9.45,0.79c-2.45,0.18-4.46,0.7-6.04,1.58c-1.58,0.88-2.36,2.19-2.36,3.94
				c0,1.75,0.68,3.17,2.04,4.27C588.68,122.22,590.98,122.77,594.22,122.77z"/>
		</g>
	</g>
	<path class="st2" d="M160.89,254.26c-0.67-2.16-1.69-4.15-3-5.92c-3.66-4.95-9.53-8.1-16-8.1c-0.63,0-1.27,0.03-1.91,0.09
		c-1.65,0.16-3.23,0.53-4.72,1.06c-2.14,0.75-4.11,1.84-5.83,3.22c-1.45,1.16-2.72,2.51-3.79,4.02c-2.68,3.77-4.09,8.47-3.61,13.43
		c0.98,10.32,9.66,18.04,19.82,18.04c0.63,0,1.27-0.03,1.91-0.09c10.48-1,18.26-9.94,18.01-20.3c-0.01-0.48-0.02-0.95-0.06-1.43
		C161.58,256.89,161.29,255.54,160.89,254.26z"/>
	<path class="st2" d="M266.75,234.04c-1.47-1.2-3.11-2.19-4.87-2.94c-2.19-0.92-4.56-1.45-7.03-1.54c-0.22-0.01-0.44-0.03-0.67-0.03
		c-0.63,0-1.27,0.03-1.91,0.09c-6.67,0.64-12.25,4.5-15.36,9.9c-1.2,2.08-2.03,4.38-2.41,6.82c-0.26,1.62-0.34,3.3-0.18,5.01
		c0.02,0.22,0.06,0.42,0.09,0.64c1.27,9.99,9.78,17.41,19.73,17.41c0.63,0,1.27-0.03,1.91-0.09c10.96-1.04,18.99-10.77,17.95-21.73
		C273.48,242.06,270.73,237.29,266.75,234.04z"/>
	<path class="st3" d="M311.59,110.59l-1.8-18.86c-0.78-8.14-7.63-14.24-15.64-14.24c-0.5,0-1,0.02-1.51,0.07
		c-8.65,0.82-14.99,8.5-14.17,17.15l1.8,18.86c0.26,2.7,0.37,5.38,0.4,8.04c0.42,33.3-16.33,63.52-42.57,81.32
		c-13,8.82-28.31,14.59-45.02,16.19c-3.11,0.3-6.19,0.44-9.25,0.44c-12.2,0-23.96-2.31-34.83-6.54c-8.5-3.3-16.44-7.81-23.62-13.28
		c-1.32-1.18-2.84-2.41-4.61-3.71c-26.51-19.47-31.46-52.71-31.46-52.71c-0.81-3.71-1.4-7.51-1.77-11.39l-3.47-36.39
		c-1.68-17.65-16.58-30.9-33.96-30.9c-1.08,0-2.17,0.05-3.26,0.16l-32.6,3.11C5.59,68.72-0.75,76.4,0.07,85.05
		c0.78,8.14,7.63,14.24,15.64,14.24c0.5,0,1-0.02,1.51-0.07l32.6-3.11c0.09-0.01,0.17-0.01,0.26-0.01c1.36,0,2.53,1.04,2.66,2.42
		l3.47,36.39c0.57,5.99,1.58,11.84,2.93,17.54c0.14,0.69,0.29,1.4,0.5,2.14c5.15,17.99,12.07,30.3,12.07,30.3
		c5.53,9.94,12.34,19.02,20.18,27.08l0.12,0.15l0.45,0.43c1.89,1.92,3.83,3.78,5.83,5.57l0.29,0.28l0.03,0
		c7.6,6.77,15.99,12.65,24.99,17.47c4.44-3.35,9.71-5.45,15.39-5.99c0.96-0.09,1.94-0.14,2.91-0.14h0
		c13.32,0,24.64,8.48,28.74,20.58c4.34,0.45,8.73,0.7,13.17,0.7c4.05,0,8.15-0.19,12.26-0.58c9.77-0.93,19.16-2.98,28.11-5.93
		c0.86-5.25,3.06-10.2,6.54-14.41c5.17-6.26,12.48-10.14,20.57-10.91c0.96-0.09,1.94-0.14,2.91-0.14h0c4.13,0,8.06,0.83,11.65,2.31
		C297.31,195.14,315.76,154.35,311.59,110.59z"/>
	<path class="st0" d="M166.01,152.16c-3.59,0.47-4.98,2.02-4.44,5.64c1.34,8.91,2.53,17.84,3.9,27.67
		c16.77-2.35,32.62-4.18,48.31-6.9c9.53-1.65,14.49-9.8,12.89-19.05c-1.51-8.75-8.59-14.21-18.04-13.15
		c-8.07,1.99-16.55,3.15-25.31,3.39C177.54,150.58,171.78,151.4,166.01,152.16z"/>
	<path class="st0" d="M183.3,149.76c8.77-0.23,17.25-1.4,25.31-3.39c-0.05,0.01-0.09,0.01-0.14,0.01
		C200.07,147.38,191.69,148.57,183.3,149.76z"/>
	<path class="st0" d="M200.5,101.15c9.64-1.85,12.92-8.45,11.08-18.17c-1.55-8.2-7.57-13.03-16.57-12.04
		c-13.45,1.47-26.83,3.52-40.19,5.68c-1.51,0.25-3.88,2.97-3.75,4.34c0.82,8.71,2.23,17.37,3.54,26.81
		C170.58,105.54,185.67,104.01,200.5,101.15z"/>
	<path class="st2" d="M267.88,123.62c-2.05-2.62-4.8-4.7-7.72-6.87c-1.53-1.14-3.11-2.3-4.66-3.58c7.74-9.82,10.91-20,10.74-30.28
		c-0.16-10.03-3.49-20.15-8.87-30.15c-11.4-21.2-31.42-27.63-54.85-27.99c-0.78-5.55-1.43-10.94-2.3-16.28
		c-1.01-6.21-4.72-9.13-11.04-8.34c-6.14,0.77-12.29,1.54-18.39,2.59c-6.91,1.18-9.59,5.03-8.72,12.16
		c0.54,4.47,1.23,8.93,1.94,13.99c-3.58,0.5-6.74,0.94-10.85,1.52c-0.65-4.68-1.27-9.55-2.03-14.39c-1.17-7.41-4.23-9.82-11.7-8.98
		c-5.91,0.67-11.82,1.49-17.68,2.5c-6.75,1.17-9.17,4.64-8.37,11.59c0.49,4.26,1.11,8.5,1.63,12.75c0.05,0.44-0.17,0.91-0.49,2.51
		c-3.72,0.52-7.88,1.08-12.02,1.69c-9.4,1.38-11.72,4.42-10.38,14c2.06,14.77,4.13,29.54,6.19,44.31
		c1.02,7.32,2.05,14.64,3.07,21.96c1.77,12.69,3.55,25.39,5.32,38.08c14.82,27.68,44.01,46.52,77.6,46.52
		c44.03,0,80.5-32.34,86.96-74.56C270.23,126.76,269.1,125.18,267.88,123.62z M154.61,107.78c-1.32-9.44-2.73-18.09-3.54-26.81
		c-0.13-1.38,2.23-4.09,3.75-4.34c13.35-2.17,26.74-4.22,40.19-5.68c9-0.98,15.02,3.84,16.57,12.04
		c1.84,9.72-1.44,16.31-11.08,18.17C185.67,104.01,170.58,105.54,154.61,107.78z M213.77,178.57c-15.69,2.71-31.54,4.55-48.31,6.9
		c-1.37-9.83-2.56-18.76-3.9-27.67c-0.54-3.63,0.85-5.17,4.44-5.64c5.77-0.75,11.53-1.58,17.3-2.39c8.38-1.19,16.77-2.38,25.17-3.38
		c0.05-0.01,0.09-0.01,0.14-0.01c9.46-1.05,16.53,4.41,18.04,13.15C228.26,168.77,223.31,176.93,213.77,178.57z"/>
	<g>
		<path class="st2" d="M557.79,183.14c-1.82,0-3.56,0.29-5.2,0.88c-1.64,0.58-3.06,1.46-4.27,2.63c-1.2,1.17-2.17,2.61-2.9,4.32
			c-0.73,1.72-1.09,3.7-1.09,5.97c0,4.53,1.28,7.88,3.83,10.07c2.55,2.19,5.73,3.28,9.52,3.28c2.19,0,4.12-0.27,5.8-0.82
			c1.68-0.55,3.14-1.11,4.38-1.7c1.39,1.02,2.42,2.12,3.12,3.28c0.69,1.17,1.04,2.59,1.04,4.27c0,2.92-1.44,5.25-4.32,7
			c-2.88,1.75-6.99,2.63-12.31,2.63c-4.6,0-8.74-0.6-12.42-1.81c-3.69-1.2-6.82-2.99-9.41-5.36c-2.59-2.37-4.58-5.29-5.96-8.76
			c-1.39-3.46-2.08-7.5-2.08-12.09c0-4.82,0.78-9.01,2.35-12.59c1.57-3.57,3.7-6.53,6.4-8.87c2.7-2.33,5.82-4.09,9.36-5.25
			c3.54-1.17,7.28-1.75,11.22-1.75c5.25,0,9.3,0.95,12.15,2.85c2.85,1.9,4.27,4.34,4.27,7.33c0,1.39-0.33,2.68-0.98,3.89
			c-0.66,1.2-1.42,2.24-2.3,3.12c-1.24-0.58-2.74-1.15-4.49-1.7C561.73,183.42,559.84,183.14,557.79,183.14z"/>
		<path class="st2" d="M599.93,223.2c-0.8,0.22-1.95,0.44-3.45,0.66c-1.5,0.22-3.12,0.33-4.87,0.33c-3.65,0-6.28-0.6-7.88-1.81
			c-1.61-1.2-2.41-3.52-2.41-6.95v-32.51c0-2.12,0.55-3.96,1.64-5.53c1.09-1.57,2.59-2.94,4.49-4.1c2.55-1.53,5.53-2.7,8.92-3.5
			c3.39-0.8,6.95-1.2,10.67-1.2c7.95,0,11.93,2.81,11.93,8.43c0,1.31-0.18,2.54-0.55,3.67c-0.37,1.13-0.8,2.1-1.31,2.9
			c-1.39-0.29-3.39-0.44-6.02-0.44c-1.9,0-3.85,0.22-5.86,0.66c-2.01,0.44-3.78,1.09-5.31,1.97V223.2z"/>
		<path class="st2" d="M625.87,155.34c0-2.77,0.93-5.11,2.79-7c1.86-1.9,4.32-2.85,7.39-2.85s5.53,0.95,7.39,2.85
			c1.86,1.9,2.79,4.23,2.79,7c0,2.77-0.93,5.11-2.79,7c-1.86,1.9-4.32,2.85-7.39,2.85s-5.53-0.95-7.39-2.85
			C626.8,160.45,625.87,158.12,625.87,155.34z M626.75,170.88c0.8-0.22,1.95-0.44,3.45-0.66c1.49-0.22,3.12-0.33,4.87-0.33
			c3.65,0,6.27,0.6,7.88,1.81c1.6,1.2,2.41,3.52,2.41,6.95v44.55c-0.8,0.22-1.95,0.44-3.45,0.66c-1.5,0.22-3.12,0.33-4.87,0.33
			c-3.65,0-6.28-0.6-7.88-1.81c-1.61-1.2-2.41-3.52-2.41-6.95V170.88z"/>
		<path class="st2" d="M684.65,224.95c-1.75,0-3.36-0.13-4.82-0.38c-1.46-0.26-2.81-0.6-4.05-1.04v19.26
			c-0.8,0.22-1.95,0.44-3.45,0.66c-1.5,0.22-3.12,0.33-4.87,0.33c-3.65,0-6.28-0.6-7.88-1.81c-1.61-1.2-2.41-3.52-2.41-6.95v-53.3
			c0-1.97,0.42-3.61,1.26-4.93c0.84-1.31,1.99-2.44,3.45-3.39c2.26-1.46,5.16-2.64,8.7-3.56c3.54-0.91,7.5-1.37,11.88-1.37
			s8.39,0.55,12.04,1.64c3.65,1.09,6.79,2.77,9.41,5.03c2.63,2.26,4.65,5.14,6.08,8.65s2.13,7.7,2.13,12.59
			c0,4.67-0.69,8.77-2.08,12.31c-1.39,3.54-3.32,6.51-5.8,8.92c-2.48,2.41-5.38,4.23-8.7,5.47
			C692.22,224.33,688.59,224.95,684.65,224.95z M681.8,210.29c3.65,0,6.44-1.17,8.37-3.5c1.93-2.33,2.9-5.8,2.9-10.4
			c0-4.67-0.89-8.06-2.68-10.18c-1.79-2.12-4.43-3.17-7.94-3.17c-1.39,0-2.66,0.16-3.83,0.49c-1.17,0.33-2.15,0.71-2.96,1.15v24.08
			c0.88,0.44,1.82,0.8,2.85,1.09C679.54,210.14,680.63,210.29,681.8,210.29z"/>
		<path class="st2" d="M741.45,224.95c-6.42,0-11.37-1.46-14.83-4.38c-3.47-2.92-5.2-7.66-5.2-14.23v-48.6
			c0.8-0.22,1.95-0.45,3.45-0.71c1.5-0.25,3.08-0.38,4.76-0.38c3.57,0,6.17,0.62,7.77,1.86c1.6,1.24,2.41,3.54,2.41,6.9v5.91h14.34
			c0.44,0.8,0.86,1.81,1.26,3.01c0.4,1.2,0.6,2.54,0.6,3.99c0,2.55-0.57,4.4-1.7,5.53c-1.13,1.13-2.65,1.7-4.54,1.7h-9.96v19.48
			c0,1.9,0.6,3.25,1.81,4.05c1.2,0.8,2.9,1.2,5.09,1.2c1.09,0,2.22-0.09,3.39-0.27c1.17-0.18,2.19-0.42,3.06-0.71
			c0.66,0.8,1.22,1.7,1.7,2.68c0.47,0.98,0.71,2.17,0.71,3.56c0,2.77-1.04,5.03-3.12,6.79
			C750.37,224.08,746.71,224.95,741.45,224.95z"/>
		<path class="st2" d="M819.27,196.71c0,4.38-0.68,8.32-2.03,11.82c-1.35,3.5-3.28,6.48-5.8,8.92c-2.52,2.45-5.53,4.32-9.03,5.64
			c-3.5,1.31-7.44,1.97-11.82,1.97s-8.32-0.64-11.82-1.92c-3.5-1.28-6.51-3.14-9.03-5.58c-2.52-2.44-4.45-5.42-5.8-8.92
			c-1.35-3.5-2.02-7.48-2.02-11.93c0-4.3,0.69-8.21,2.08-11.71c1.39-3.5,3.34-6.47,5.86-8.92c2.52-2.44,5.53-4.32,9.03-5.64
			c3.5-1.31,7.41-1.97,11.71-1.97c4.3,0,8.21,0.68,11.71,2.02c3.5,1.35,6.51,3.25,9.03,5.69c2.52,2.45,4.47,5.42,5.86,8.92
			C818.58,188.62,819.27,192.48,819.27,196.71z M790.59,183.03c-3.06,0-5.44,1.19-7.11,3.56c-1.68,2.37-2.52,5.75-2.52,10.12
			c0,4.6,0.84,8.04,2.52,10.34c1.68,2.3,4.05,3.45,7.11,3.45s5.44-1.17,7.11-3.5c1.68-2.33,2.52-5.76,2.52-10.29
			c0-4.38-0.84-7.75-2.52-10.12C796.03,184.22,793.66,183.03,790.59,183.03z"/>
	</g>
</g>
</svg>
